<svg xmlns:dc="http://purl.org/dc/elements/1.1/" xmlns:cc="http://creativecommons.org/ns#" xmlns:rdf="http://www.w3.org/1999/02/22-rdf-syntax-ns#" xmlns:svg="http://www.w3.org/2000/svg" xmlns="http://www.w3.org/2000/svg" xmlns:sodipodi="http://sodipodi.sourceforge.net/DTD/sodipodi-0.dtd" xmlns:inkscape="http://www.inkscape.org/namespaces/inkscape" version="1.1" x="0px" y="0px" viewBox="0 0 100 125"><g transform="translate(0,-952.36218)"><path style="text-indent:0;text-transform:none;direction:ltr;block-progression:tb;baseline-shift:baseline;color:#000000;enable-background:accumulate;" d="m 47.699586,958.36519 a 1.9999956,2.001163 0 0 0 -1.562341,1.06301 l -20.904064,40.01925 a 1.9999956,2.001163 0 0 0 1.781018,2.93885 l 16.15455,0 -11.811194,41.4575 a 1.9999956,2.001163 0 0 0 3.530839,1.7195 c 0,0 29.398996,-40.1289 39.620951,-51.86861 a 1.9999956,2.001163 0 0 0 -1.499847,-3.3141 l -11.561318,0 13.373633,-29.20155 a 1.9999956,2.001163 0 0 0 -1.812315,-2.81385 l -25.091235,0 a 1.9999956,2.001163 0 0 0 -0.218677,0 z m 1.406156,4.00192 20.747879,0 -13.311239,29.17024 a 1.9999956,2.001163 0 0 0 1.812414,2.84517 l 10.46763,0 C 59.449184,1005.695 45.496711,1024.489 38.200557,1034.4017 l 9.530325,-33.4849 a 1.9999956,2.001163 0 0 0 -1.906105,-2.53236 l -15.529713,0 18.810678,-36.01733 z" fill="#000000" fill-opacity="1" stroke="none" marker="none" visibility="visible" display="inline" overflow="visible"/></g></svg>
