<svg xmlns="http://www.w3.org/2000/svg" xmlns:xlink="http://www.w3.org/1999/xlink" version="1.1" x="0px" y="0px" viewBox="0 0 100 125" style="enable-background:new 0 0 100 100;" xml:space="preserve"><path d="M82,47.4c-0.2-1-0.4-1.9-0.5-2.5c-0.1-0.3-0.2-0.6-0.5-0.7V29.6c0-4.1-2-6.9-6-8.6l-0.2-0.1l-5.6-1.1h-0.3  c-1.8,0-3.5,0.7-4.7,2c-1.1-2.2-3.4-3.6-5.9-3.6h-5.2c-3,0-5.6,2-6.4,4.9c-1.2-1-2.7-1.6-4.2-1.5h-5.7c-2.5,0.2-4.7,1.8-5.8,4  c-0.8-0.8-1.9-1.2-3-1.2h-0.3L21,25.7h-0.1c-3.6,1.2-5.4,3.5-5.4,7.3v26.2c0,2.5,1.1,6.8,8.8,6.8c3.5,0,5.6-0.9,6.9-2.1  c1.1,2.4,3.3,4,5.9,4.5L37,68.5l-1.6,2.8c-1.9,3.4-0.7,7.6,2.6,9.5c1,0.6,2.2,0.9,3.4,0.9l17.4,0.1h0.1c2.5,0,5-0.6,7.2-1.8l14-8.7  c2.8-1.7,4.5-4.9,4.4-8.2C84.2,57.9,83.3,52.6,82,47.4z M33.1,60.8V43.3c0-0.7-0.6-1.3-1.3-1.3s-1.3,0.6-1.3,1.3v15.9  c0,1.1,0,4.3-6.3,4.3s-6.3-3.3-6.3-4.3V33.1c0-2.6,1-4,3.6-4.9l6.6-1.4c1.4,0.1,2.5,1.8,2.5,4c0,0.7,0.6,1.3,1.3,1.3  c0.7,0,1.3-0.6,1.3-1.3V28c0-2.7,2.5-3.8,4.1-4h5.5c2.2,0,4,1.8,4,4c0.2,0.7,0.9,1.1,1.5,0.9c0.4-0.1,0.8-0.5,0.9-0.9v-3.2  c0-2.3,1.8-4.1,4.1-4.1h5.3c2.3,0,4.1,1.8,4.1,4.1v1.4c0,0.7,0.6,1.3,1.3,1.3s1.3-0.6,1.3-1.3c0-2.1,1.7-3.9,3.8-4l5.3,1.1  c3,1.3,4.3,3.2,4.3,6.3v31.2c0,3.9-3.4,5.3-6.3,5.3h-0.9c-2.9,0-6.3-1.4-6.3-5.3l0,0V37.5c0-0.7-0.6-1.3-1.3-1.3s-1.3,0.6-1.3,1.3  v26.2l0,0v1c0,1.1,0,4.3-6.3,4.3h-0.9C49,69,49,65.8,49,64.7V39.1c0-0.7-0.6-1.3-1.3-1.3s-1.3,0.6-1.3,1.3v21.7  c0,3.9-3.4,5.3-6.3,5.3h-0.9C36.5,66.1,33.1,64.7,33.1,60.8z M78.9,69.3l-14.1,8.6c-1.9,0.9-3.9,1.4-6,1.4l-17.4-0.1  c-2.5,0-4.5-2-4.4-4.5c0-0.8,0.2-1.5,0.6-2.2l1.6-2.8c0.2-0.4,0.2-0.8,0-1.2h1.1c2.4,0.1,4.7-0.7,6.5-2.3c0.5,2.4,2.4,5.2,8.6,5.2  h0.9c6.2,0,8.1-2.8,8.7-5.2c1.8,1.6,4.1,2.4,6.5,2.3h0.9c5.2,0,8.8-3.2,8.8-7.8v-5.9c0.5,2.8,0.9,5.7,1,8.5  C82.1,65.8,80.9,68,78.9,69.3L78.9,69.3z"/></svg>
